<svg width="1590" height="1174" viewBox="0 0 1590 1174" fill="none" xmlns="http://www.w3.org/2000/svg">
<g clip-path="url(#clip0_1_2)" filter="url(#filter0_di_1_2)">
<rect width="1440" height="1024" transform="translate(95 35)" fill="#000211"/>
<g filter="url(#filter1_f_1_2)">
<path d="M1407.74 917.407C1452.87 880.833 1471.32 840.787 1461.38 800.989C1451.44 761.192 1413.43 722.936 1350.89 689.778C1288.34 656.619 1203.29 629.634 1103.64 611.331C1003.99 593.028 892.966 584 780.899 585.088C668.832 586.175 559.355 597.343 462.644 617.551C365.934 637.76 285.128 666.355 227.739 700.677C170.349 735 138.239 773.936 134.392 813.867C130.545 853.798 155.086 893.428 205.734 929.072L799 822L1407.74 917.407Z" fill="url(#paint0_radial_1_2)"/>
</g>
<rect x="651" y="599" width="1" height="1" rx="0.5" fill="#D9D9D9"/>
<rect x="721" y="706" width="1" height="1" rx="0.5" fill="#D9D9D9"/>
<rect x="901" y="615" width="1" height="1" rx="0.5" fill="#D9D9D9"/>
<rect x="867" y="676" width="1" height="1" rx="0.5" fill="#D9D9D9"/>
<rect x="873" y="766" width="1" height="1" rx="0.5" fill="#D9D9D9"/>
<rect x="441" y="745" width="1" height="1" rx="0.5" fill="#D9D9D9" fill-opacity="0.25"/>
<rect x="442" y="696" width="1" height="1" rx="0.5" fill="#D9D9D9" fill-opacity="0.25"/>
<rect x="513" y="649" width="1" height="1" rx="0.5" fill="#D9D9D9" fill-opacity="0.8"/>
<rect x="378" y="690" width="1" height="1" rx="0.5" fill="#D9D9D9" fill-opacity="0.1"/>
<rect x="379" y="783" width="1" height="1" rx="0.5" fill="#D9D9D9" fill-opacity="0.8"/>
<rect x="454" y="634" width="1" height="1" rx="0.5" fill="#D9D9D9" fill-opacity="0.8"/>
<rect x="677" y="785" width="1" height="1" rx="0.5" fill="#D9D9D9"/>
<rect x="584" y="767" width="1" height="1" rx="0.5" fill="#D9D9D9" fill-opacity="0.6"/>
<rect x="982" y="746" width="1" height="1" rx="0.5" fill="#D9D9D9" fill-opacity="0.1"/>
<rect x="1018" y="714" width="1" height="1" rx="0.5" fill="#D9D9D9" fill-opacity="0.1"/>
<rect x="929" y="691" width="5" height="5" rx="2.5" fill="#D9D9D9" fill-opacity="0.7"/>
<rect x="994" y="654" width="5" height="5" rx="2.5" fill="#D9D9D9" fill-opacity="0.75"/>
<rect x="767" y="580" width="5" height="5" rx="2.5" fill="#D9D9D9" fill-opacity="0.8"/>
<rect x="746" y="740" width="5" height="5" rx="2.5" fill="#D9D9D9" fill-opacity="0.72"/>
<rect x="841" y="722" width="5" height="5" rx="2.5" fill="#D9D9D9" fill-opacity="0.5"/>
<rect x="1061" y="707" width="5" height="5" rx="2.5" fill="#D9D9D9" fill-opacity="0.1"/>
<rect x="1013" y="735" width="5" height="5" rx="2.5" fill="#D9D9D9" fill-opacity="0.75"/>
<rect x="1063" y="658" width="5" height="5" rx="2.5" fill="#D9D9D9" fill-opacity="0.1"/>
<rect x="1025" y="615" width="5" height="5" rx="2.5" fill="#D9D9D9" fill-opacity="0.8"/>
<rect x="1078" y="780" width="5" height="5" rx="2.5" fill="#D9D9D9"/>
<rect x="541" y="712" width="5" height="5" rx="2.5" fill="#D9D9D9"/>
<rect x="568" y="650" width="5" height="5" rx="2.5" fill="#D9D9D9"/>
<rect x="526" y="599" width="5" height="5" rx="2.5" fill="#D9D9D9"/>
<rect x="526" y="599" width="5" height="5" rx="2.5" fill="#D9D9D9" fill-opacity="0.5"/>
<rect x="674" y="544" width="5" height="5" rx="2.5" fill="#D9D9D9" fill-opacity="0.8"/>
<rect x="626" y="692" width="1" height="1" rx="0.5" fill="#D9D9D9"/>
<rect x="678" y="635" width="1" height="1" rx="0.5" fill="#D9D9D9"/>
<rect x="739" y="650" width="1" height="1" rx="0.5" fill="#D9D9D9"/>
<rect x="799" y="715" width="1" height="1" rx="0.5" fill="#D9D9D9"/>
<rect x="772" y="658" width="1" height="1" rx="0.5" fill="#D9D9D9" fill-opacity="0.55"/>
<rect x="815" y="636" width="1" height="1" rx="0.5" fill="#D9D9D9" fill-opacity="0.55"/>
<rect x="772" y="617" width="1" height="1" rx="0.5" fill="#D9D9D9" fill-opacity="0.8"/>
<rect x="681" y="669" width="1" height="1" rx="0.5" fill="#D9D9D9"/>
</g>
<defs>
<filter id="filter0_di_1_2" x="0" y="0" width="1590" height="1174" filterUnits="userSpaceOnUse" color-interpolation-filters="sRGB">
<feFlood flood-opacity="0" result="BackgroundImageFix"/>
<feColorMatrix in="SourceAlpha" type="matrix" values="0 0 0 0 0 0 0 0 0 0 0 0 0 0 0 0 0 0 127 0" result="hardAlpha"/>
<feOffset dx="-20" dy="40"/>
<feGaussianBlur stdDeviation="37.5"/>
<feComposite in2="hardAlpha" operator="out"/>
<feColorMatrix type="matrix" values="0 0 0 0 1 0 0 0 0 1 0 0 0 0 1 0 0 0 0.25 0"/>
<feBlend mode="hard-light" in2="BackgroundImageFix" result="effect1_dropShadow_1_2"/>
<feBlend mode="normal" in="SourceGraphic" in2="effect1_dropShadow_1_2" result="shape"/>
<feColorMatrix in="SourceAlpha" type="matrix" values="0 0 0 0 0 0 0 0 0 0 0 0 0 0 0 0 0 0 127 0" result="hardAlpha"/>
<feOffset dy="6"/>
<feGaussianBlur stdDeviation="12.5"/>
<feComposite in2="hardAlpha" operator="arithmetic" k2="-1" k3="1"/>
<feColorMatrix type="matrix" values="0 0 0 0 1 0 0 0 0 1 0 0 0 0 1 0 0 0 0.25 0"/>
<feBlend mode="lighten" in2="shape" result="effect2_innerShadow_1_2"/>
</filter>
<filter id="filter1_f_1_2" x="-66.0001" y="385" width="1730" height="744.072" filterUnits="userSpaceOnUse" color-interpolation-filters="sRGB">
<feFlood flood-opacity="0" result="BackgroundImageFix"/>
<feBlend mode="normal" in="SourceGraphic" in2="BackgroundImageFix" result="shape"/>
<feGaussianBlur stdDeviation="100" result="effect1_foregroundBlur_1_2"/>
</filter>
<radialGradient id="paint0_radial_1_2" cx="0" cy="0" r="1" gradientUnits="userSpaceOnUse" gradientTransform="translate(799 706.321) rotate(90) scale(352.679 989.583)">
<stop stop-color="#4F1ABE"/>
<stop offset="1" stop-color="#24214B" stop-opacity="0"/>
</radialGradient>
<clipPath id="clip0_1_2">
<rect width="1440" height="1024" fill="white" transform="translate(95 35)"/>
</clipPath>
</defs>
</svg>
